<svg xmlns="http://www.w3.org/2000/svg" version="1.1" xmlns:xlink="http://www.w3.org/1999/xlink" width="512" height="512" x="0" y="0" viewBox="0 0 512 512" style="enable-background:new 0 0 512 512" xml:space="preserve"><g><path fill="#FFD88F" d="M413.426 439.686h53.438c16.99 0 30.762-13.773 30.762-30.762v-90.156h-84.2z" opacity="1" data-original="#ffd88f"></path><path fill="#FF7893" d="M413.426 357.94h53.438c16.99 0 30.762-13.773 30.762-30.762v-90.156h-84.2z" opacity="1" data-original="#ff7893"></path><path fill="#59A1A5" d="M413.426 276.194h53.438c16.99 0 30.762-13.773 30.762-30.762v-91.513h-84.2z" opacity="1" data-original="#59a1a5"></path><path fill="#FF9E5E" d="M413.426 193.092h53.435c16.991 0 30.764-13.772 30.764-30.76v-59.398c0-16.988-13.774-30.76-30.764-30.76h-53.435z" opacity="1" data-original="#ff9e5e"></path><path fill="#FFF7E8" d="M392.274 504.5H116.83c-30.691 0-55.571-24.88-55.571-55.571V63.071c0-30.691 24.88-55.57 55.571-55.57h275.444c30.691 0 55.571 24.88 55.571 55.571V448.93c0 30.69-24.88 55.57-55.571 55.57z" opacity="1" data-original="#fff7e8"></path><path fill="#FFF1D6" d="M392.274 7.5h-40c30.691 0 55.571 24.88 55.571 55.571v385.858c0 30.691-24.88 55.571-55.571 55.571h40c30.691 0 55.571-24.88 55.571-55.571V63.072c0-30.692-24.88-55.572-55.571-55.572z" opacity="1" data-original="#fff1d6"></path><path fill="#59A1A5" d="M116.834 7.5c-30.693 0-55.575 24.878-55.575 55.567v385.866c0 30.689 24.882 55.567 55.575 55.567h34.823V7.5z" opacity="1" data-original="#59a1a5"></path><g fill="#B5E8E0"><path d="M87.85 111.173H35c-11.392 0-20.626-9.235-20.626-20.626 0-11.392 9.235-20.626 20.626-20.626h52.85c11.392 0 20.626 9.235 20.626 20.626 0 11.391-9.234 20.626-20.626 20.626zM87.85 221.476H35c-11.391 0-20.626-9.235-20.626-20.626 0-11.392 9.235-20.627 20.627-20.627h52.85c11.392 0 20.626 9.235 20.626 20.626-.001 11.392-9.235 20.627-20.627 20.627zM87.85 331.778H35c-11.391 0-20.626-9.235-20.626-20.626 0-11.392 9.235-20.627 20.627-20.627h52.85c11.392 0 20.626 9.235 20.626 20.626-.001 11.392-9.235 20.627-20.627 20.627zM87.85 442.08H35c-11.391 0-20.626-9.235-20.626-20.626 0-11.392 9.235-20.626 20.627-20.626h52.85c11.392 0 20.626 9.235 20.626 20.626-.001 11.392-9.235 20.626-20.627 20.626z" fill="#B5E8E0" opacity="1" data-original="#b5e8e0"></path></g><g fill="#97DBD1"><path d="M87.85 69.92h-40c11.392 0 20.626 9.235 20.626 20.626s-9.235 20.626-20.626 20.626h40c11.392 0 20.626-9.235 20.626-20.626S99.242 69.92 87.85 69.92zM87.85 180.223h-40c11.392 0 20.626 9.235 20.626 20.626 0 11.392-9.235 20.626-20.626 20.626h40c11.392 0 20.626-9.235 20.626-20.626.001-11.391-9.234-20.626-20.626-20.626zM87.85 290.525h-40c11.392 0 20.626 9.235 20.626 20.626 0 11.392-9.235 20.626-20.626 20.626h40c11.392 0 20.626-9.235 20.626-20.626.001-11.391-9.234-20.626-20.626-20.626zM87.85 400.828h-40c11.392 0 20.626 9.235 20.626 20.626 0 11.392-9.235 20.626-20.626 20.626h40c11.392 0 20.626-9.235 20.626-20.626.001-11.392-9.234-20.626-20.626-20.626z" fill="#97DBD1" opacity="1" data-original="#97dbd1"></path></g><path d="M466.862 64.674h-11.517C455.724 29.809 427.541 0 392.274 0H151.829c-.029 0-.057.004-.086.004S151.686 0 151.657 0h-34.823C82.271 0 54.125 27.943 53.775 62.421H35c-15.509 0-28.126 12.617-28.126 28.126S19.491 118.673 35 118.673h18.759v54.05H35c-15.509 0-28.126 12.618-28.126 28.127S19.491 228.976 35 228.976h18.759v54.05H35c-15.509 0-28.126 12.618-28.126 28.127S19.491 339.278 35 339.278h18.759v54.05H35c-15.509 0-28.126 12.617-28.126 28.126S19.491 449.58 35 449.58h18.776c.35 34.477 28.496 62.42 63.058 62.42h34.823c.029 0 .057-.004.086-.004s.057.004.086.004h240.445c35.376 0 63.441-29.886 63.071-64.813h11.519c21.098 0 38.262-17.165 38.262-38.263v-305.99c0-21.097-17.165-38.26-38.264-38.26zm23.264 262.504c0 12.827-10.436 23.263-23.262 23.263h-11.519v-66.746h11.519c8.746 0 16.811-2.956 23.262-7.913zm0-81.746c0 12.827-10.436 23.263-23.262 23.263h-11.519v-68.103h11.517c8.747 0 16.812-2.956 23.265-7.913v52.753zM466.862 79.674c12.828 0 23.265 10.435 23.265 23.26v59.398c0 12.825-10.437 23.26-23.265 23.26h-11.517V79.674zM21.874 90.547c0-7.237 5.889-13.126 13.126-13.126h52.85c7.238 0 13.126 5.889 13.126 13.126s-5.888 13.126-13.126 13.126H35c-7.238 0-13.126-5.889-13.126-13.126zm0 110.303c0-7.238 5.889-13.127 13.126-13.127h52.85c7.238 0 13.126 5.889 13.126 13.127 0 7.237-5.888 13.126-13.126 13.126H35c-7.238 0-13.126-5.889-13.126-13.126zm0 110.302c0-7.238 5.889-13.127 13.126-13.127h52.85c7.238 0 13.126 5.889 13.126 13.126 0 7.238-5.888 13.127-13.126 13.127H35c-7.238 0-13.126-5.888-13.126-13.126zm0 110.302c0-7.237 5.889-13.126 13.126-13.126h52.85c7.238 0 13.126 5.889 13.126 13.126S95.088 434.58 87.85 434.58H35c-7.238 0-13.126-5.889-13.126-13.126zm444.99 10.733h-11.519v-10.732c0-9.697-15-9.697-15 0v27.476c0 26.506-21.564 48.07-48.071 48.07H159.156V111.173c0-9.697-15-9.697-15 0V497h-27.323c-26.291 0-47.709-21.214-48.058-47.42H87.85c15.509 0 28.126-12.617 28.126-28.126s-12.617-28.126-28.126-28.126H68.759v-54.05H87.85c15.509 0 28.126-12.618 28.126-28.127s-12.617-28.126-28.126-28.126H68.759v-54.05H87.85c15.509 0 28.126-12.617 28.126-28.126s-12.617-28.127-28.126-28.127H68.759v-54.05H87.85c15.509 0 28.126-12.617 28.126-28.126S103.359 62.421 87.85 62.421H68.775C69.124 36.214 90.542 15 116.834 15h27.323v57.174c0 9.697 15 9.697 15 0V15h233.118c26.506 0 48.071 21.564 48.071 48.071v319.467c0 9.697 15 9.697 15 0V365.44h11.519c8.746 0 16.811-2.956 23.262-7.913v51.397c-.001 12.827-10.436 23.263-23.263 23.263z" fill="#000000" opacity="1" data-original="#000000"></path><path d="M335.478 206.883c13.655-11.534 21.927-28.728 21.927-47.036 0-33.901-27.584-61.482-61.491-61.482-33.906 0-61.49 27.581-61.49 61.482 0 18.309 8.271 35.502 21.927 47.036-32.468 15.161-54.068 48.142-54.068 84.85 0 9.697 15 9.697 15 0 0-35.257 23.725-66.418 57.695-75.779 6.577-1.813 7.371-11.118 1.196-14.019-16.25-7.635-26.75-24.154-26.75-42.088 0-25.631 20.855-46.482 46.49-46.482s46.491 20.852 46.491 46.482c0 17.934-10.5 34.453-26.75 42.088-6.174 2.901-5.381 12.206 1.196 14.019 33.97 9.361 57.695 40.522 57.695 75.779 0 9.697 15 9.697 15 0 0-36.709-21.599-69.689-54.068-84.85zM382.046 349.019H209.783c-9.697 0-9.697 15 0 15h172.263c9.697 0 9.697-15 0-15zM351.909 398.496H239.92c-9.697 0-9.697 15 0 15h111.989c9.697 0 9.697-15 0-15z" fill="#000000" opacity="1" data-original="#000000"></path></g></svg>